<svg xmlns="http://www.w3.org/2000/svg" width="59.188" height="100.095" viewBox="0 0 59.188 100.095"><defs><style>.a{fill:#fff;}.b{fill:#009aa0;}</style></defs><g transform="translate(-108.594 -82.895)"><path class="a" d="M149.224,154.126c4.668,3.542,10.014,5.96,15.4,8.219l-1.218.94-9.808,4.415-35.4-31.946.3,47.715-9.893,4.444.177-71.059c3.979,3.282,8.628,5.327,13.341,7.549,7.234,3.421,11.827,7.345,15.565,14.55C140.764,144.894,143.8,150.016,149.224,154.126Z" transform="translate(0 -4.922)"/><path class="a" d="M168.324,82.895l-.186,70.763c-6.164-2.548-12.542-5.263-17.553-9.754-5.392-4.835-7.354-11.556-11.306-17.386-6.555-9.678-18.521-11.046-26.944-18.093l1.171-.911,9.818-4.407,35.4,31.946-.3-47.715Z" transform="translate(-0.542 0)"/><path class="b" d="M132.976,101.377l21.793-9.791.184,29.621Z" transform="translate(-3.534 -1.26)"/><path class="b" d="M149.663,176.471l-21.793,9.791-.184-29.621Z" transform="translate(-2.767 -10.689)"/></g></svg>