<svg xmlns="http://www.w3.org/2000/svg" width="155.557" height="38.197" viewBox="0 0 155.557 38.197"><defs><style>.a{fill:#fff;}</style></defs><g transform="translate(1291.25 -1056.894)"><path class="a" d="M-1078.519,1102.693v17.542h-.128l-11-11.492v11.214h-2.7v-17.521h.139l10.979,11.47v-11.214Z" transform="translate(-153.543 -35.157)"/><path class="a" d="M-952.258,1103.747-960.2,1121.3h-.182l-7.906-17.552h2.87l5.122,11.641,5.143-11.641Z" transform="translate(-249.312 -36.168)"/><path class="a" d="M-1022.715,1121.3l7.939-17.552h.181l7.906,17.552h-2.87l-5.122-11.641-5.143,11.641Z" transform="translate(-207.295 -36.168)"/><path class="a" d="M-762.333,1121.3l7.939-17.552h.182l7.907,17.552h-2.87l-5.122-11.641-5.143,11.641Z" transform="translate(-408.297 -36.168)"/><path class="a" d="M-886.946,1106.4v5.284h4.855l-1.684,2.475h-3.172v4.1h7.546v2.688h-10.244v-17.2H-879.4v2.656Z" transform="translate(-310.019 -36.169)"/><path class="a" d="M-818.955,1110.587h-4.885l-1.684,2.475h3.752v.052c0,2.626-2.219,4.429-5.175,4.429a6.161,6.161,0,0,1-6.348-6.145,6.2,6.2,0,0,1,6.1-6.189,7.183,7.183,0,0,1,4.791,2.155l1.505-2.239a9.592,9.592,0,0,0-6.264-2.636,8.925,8.925,0,0,0-8.877,8.909,8.9,8.9,0,0,0,8.974,8.865,7.979,7.979,0,0,0,8.183-8.332A12.84,12.84,0,0,0-818.955,1110.587Z" transform="translate(-351.4 -35.196)"/><path class="a" d="M-666.167,1102.11v17.574h-2.7v-9.539l-5.709,9.251h-.021l-5.719-9.262v9.55h-2.7V1102.11h.2l8.226,12.505,8.216-12.505Z" transform="translate(-469.526 -34.904)"/><path class="a" d="M-1254.734,1068.168a19.093,19.093,0,0,0-25.241-9.592,19.094,19.094,0,0,0-9.594,25.241,19.1,19.1,0,0,0,25.243,9.594A19.1,19.1,0,0,0-1254.734,1068.168Zm-13.87-3.571.05,7.9-5.863-5.288Zm-6.969,22.737-.05-7.9,5.863,5.291Zm10.214-4.591-2.616,1.177-9.444-8.52.08,12.728-2.639,1.184.048-18.951a16.315,16.315,0,0,0,3.558,2.014,8.092,8.092,0,0,1,4.151,3.879,11.055,11.055,0,0,0,3.081,4.048,18.5,18.5,0,0,0,4.107,2.192Zm1.12-1.254a16,16,0,0,1-4.682-2.6c-1.439-1.289-1.961-3.083-3.017-4.636-1.747-2.582-4.94-2.947-7.186-4.826l.313-.244,2.62-1.174,9.441,8.52-.08-12.725,2.639-1.186Z"/></g></svg>