<svg xmlns="http://www.w3.org/2000/svg" width="223" height="53.9" viewBox="0 0 223 53.9"><defs><style>.a{fill:#1e252d;}.b{fill:#009aa0;}.c{fill:#fff;}</style></defs><g transform="translate(-79.91 -57.83)"><path class="a" d="M298.614,103.715v24.759h-.183l-15.771-16.22v15.828h-3.87V103.354h.2l15.74,16.19V103.715Z" transform="translate(-133.859 -30.871)"/><path class="a" d="M425.828,104.664l-11.381,24.774h-.26l-11.335-24.774h4.115l7.342,16.431,7.373-16.431Z" transform="translate(-217.36 -31.759)"/><path class="a" d="M348.422,129.438,359.8,104.664h.26L371.4,129.438h-4.115l-7.342-16.431-7.373,16.431Z" transform="translate(-180.725 -31.759)"/><path class="b" d="M608.8,129.438l11.381-24.774h.26l11.335,24.774h-4.115l-7.342-16.431-7.373,16.431Z" transform="translate(-355.979 -31.759)"/><path class="a" d="M485.361,108.414v7.458h6.961l-2.414,3.493h-4.547v5.782h10.818v3.794H481.493V104.666h14.685v3.748Z" transform="translate(-270.291 -31.76)"/><path class="a" d="M559.59,114.836h-7l-2.414,3.493h5.379v.073c0,3.706-3.182,6.251-7.419,6.251a8.709,8.709,0,1,1-.352-17.409,10.373,10.373,0,0,1,6.868,3.041l2.158-3.161a13.861,13.861,0,0,0-8.98-3.72,12.546,12.546,0,1,0,.139,25.088,11.35,11.35,0,0,0,11.731-11.76A17.863,17.863,0,0,0,559.59,114.836Z" transform="translate(-306.371 -30.905)"/><path class="b" d="M712.275,103.027v24.8h-3.87V114.367l-8.184,13.057h-.03l-8.2-13.072v13.479h-3.87v-24.8h.291l11.794,17.651,11.779-17.651Z" transform="translate(-409.365 -30.649)"/><ellipse class="a" cx="27.373" cy="26.95" rx="27.373" ry="26.95" transform="translate(79.91 57.83)"/><path class="c" d="M144.857,130.884a26.67,26.67,0,0,0,5.887,3.094l-.466.354-3.75,1.662-13.537-12.026.114,17.962-3.783,1.673.068-26.75a23.53,23.53,0,0,0,5.1,2.842,11.53,11.53,0,0,1,5.951,5.477A15.618,15.618,0,0,0,144.857,130.884Z" transform="translate(-33.257 -40.025)"/><path class="c" d="M154.471,82.9l-.071,26.638a23.028,23.028,0,0,1-6.712-3.672c-2.062-1.82-2.812-4.35-4.323-6.545-2.506-3.643-7.081-4.158-10.3-6.811l.448-.343,3.754-1.659L150.8,102.53l-.113-17.962Z" transform="translate(-35.775 -16.997)"/><path class="b" d="M153.7,95.272l8.333-3.686.07,11.151Z" transform="translate(-49.668 -22.891)"/><path class="b" d="M156.817,164.105l-8.333,3.686-.07-11.151Z" transform="translate(-46.107 -67.005)"/></g></svg>